<?xml version="1.0" encoding="iso-8859-1"?>
<!-- Generator: Adobe Illustrator 19.0.0, SVG Export Plug-In . SVG Version: 6.00 Build 0)  -->
<svg version="1.1" id="Layer_1" xmlns="http://www.w3.org/2000/svg" xmlns:xlink="http://www.w3.org/1999/xlink" x="0px" y="0px"
	 viewBox="0 0 505 505" style="enable-background:new 0 0 505 505;" xml:space="preserve">
<circle style="fill:#FD8469;" cx="252.5" cy="252.5" r="252.5"/>
<polygon style="fill:#FFFFFF;" points="325.6,86.1 325.6,139.7 379.1,139.7 379.1,418.9 125.9,418.9 125.9,86.1 "/>
<polygon style="fill:#E6E9EE;" points="325.6,86.1 379.1,139.7 325.6,139.7 "/>
<g>
	<path style="fill:#4CDBC4;" d="M230,344.3c0,20.7-16.8,37.5-37.5,37.5S155,365,155,344.3s16.8-37.5,37.5-37.5v37.5H230z"/>
	<path style="fill:#4CDBC4;" d="M238.4,335.8h-37.5v-37.5C221.7,298.3,238.4,315.1,238.4,335.8z"/>
	<path style="fill:#4CDBC4;" d="M190.2,227.8l10.3-33.4c-12-3.7-25.6-0.8-35.2,8.7c-13.7,13.7-13.7,35.9,0,49.5
		c13.7,13.7,35.9,13.7,49.5,0c9.5-9.5,12.4-23.1,8.7-35.2L190.2,227.8z"/>
	<path style="fill:#4CDBC4;" d="M230.6,210.4c-1.6-5.3-4.5-10.2-8.7-14.4s-9.1-7-14.4-8.7l-10.3,33.4L230.6,210.4z"/>
</g>
<g>
	<rect x="256.6" y="198.2" style="fill:#ACB3BA;" width="17.2" height="10.9"/>
	<rect x="256.6" y="219.7" style="fill:#ACB3BA;" width="17.2" height="10.9"/>
	<rect x="256.6" y="241.2" style="fill:#ACB3BA;" width="17.2" height="10.9"/>
</g>
<g>
	<rect x="289" y="198.2" style="fill:#E6E9EE;" width="63.3" height="10.9"/>
	<rect x="289" y="219.7" style="fill:#E6E9EE;" width="63.3" height="10.9"/>
	<rect x="289" y="241.2" style="fill:#E6E9EE;" width="63.3" height="10.9"/>
</g>
<g>
	<rect x="256.6" y="313.1" style="fill:#ACB3BA;" width="17.2" height="10.9"/>
	<rect x="256.6" y="334.6" style="fill:#ACB3BA;" width="17.2" height="10.9"/>
	<rect x="256.6" y="356.1" style="fill:#ACB3BA;" width="17.2" height="10.9"/>
</g>
<g>
	<rect x="289" y="313.1" style="fill:#E6E9EE;" width="63.3" height="10.9"/>
	<rect x="289" y="334.6" style="fill:#E6E9EE;" width="63.3" height="10.9"/>
	<rect x="289" y="356.1" style="fill:#E6E9EE;" width="63.3" height="10.9"/>
</g>
<g>
</g>
<g>
</g>
<g>
</g>
<g>
</g>
<g>
</g>
<g>
</g>
<g>
</g>
<g>
</g>
<g>
</g>
<g>
</g>
<g>
</g>
<g>
</g>
<g>
</g>
<g>
</g>
<g>
</g>
</svg>
