<?xml version="1.0" encoding="iso-8859-1"?>
<!-- Generator: Adobe Illustrator 19.0.0, SVG Export Plug-In . SVG Version: 6.00 Build 0)  -->
<svg version="1.1" id="Layer_1" xmlns="http://www.w3.org/2000/svg" xmlns:xlink="http://www.w3.org/1999/xlink" x="0px" y="0px"
	 viewBox="0 0 505 505" style="enable-background:new 0 0 505 505;" xml:space="preserve">
<circle style="fill:#FD8469;" cx="252.5" cy="252.5" r="252.5"/>
<path style="fill:#FFFFFF;" d="M394.9,252.5L394.9,252.5c0-89.7-73-162.7-162.7-162.7s-162.7,73-162.7,162.7s73,162.7,162.7,162.7
	S394.9,342.2,394.9,252.5L394.9,252.5L394.9,252.5z M309,245.6c-0.3-16.8-1.8-32.9-4.3-47.9c40.6,9.9,69.8,27.6,75.3,47.9H309z
	 M295.2,245.6H239v-56.2c17.9,0.4,35.2,2.2,51.1,5.1C293,210.4,294.8,227.6,295.2,245.6z M239,175.6v-71.1
	c20.3,5.5,38,34.8,47.9,75.3C271.9,177.4,255.8,175.9,239,175.6z M225.2,104.5v71.1c-16.8,0.3-32.9,1.8-47.9,4.3
	C187.2,139.3,204.9,110,225.2,104.5z M225.2,189.4v56.2H169c0.4-17.9,2.2-35.2,5.1-51C190,191.6,207.3,189.8,225.2,189.4z
	 M155.2,245.6H84.1c5.5-20.3,34.8-38,75.3-47.9C157,212.7,155.5,228.8,155.2,245.6z M155.2,259.4c0.3,16.8,1.8,32.9,4.3,47.9
	c-40.6-9.9-69.8-27.6-75.3-47.9H155.2z M169.1,259.4h56.2v56.2c-17.9-0.4-35.2-2.2-51.1-5.1C171.2,294.6,169.4,277.3,169.1,259.4z
	 M225.2,329.4v71.1c-20.3-5.5-38-34.8-47.9-75.3C192.3,327.6,208.4,329.1,225.2,329.4z M239,400.5v-71.1c16.8-0.3,32.9-1.8,47.9-4.3
	C277.1,365.7,259.3,395,239,400.5z M239,315.6v-56.2h56.2c-0.4,17.9-2.2,35.2-5.1,51.1C274.2,313.4,257,315.2,239,315.6z M309,259.4
	h71.1c-5.5,20.3-34.8,38-75.3,47.9C307.2,292.3,308.7,276.2,309,259.4z M376.6,216.6c-16.3-14.9-42.5-26.8-74.7-33.9
	c-7.1-32.3-19-58.5-33.9-74.7C321.3,121.2,363.4,163.3,376.6,216.6z M196.2,108c-14.9,16.3-26.8,42.5-33.9,74.7
	c-32.3,7.1-58.5,19-74.7,33.9C100.9,163.3,142.9,121.2,196.2,108z M87.6,288.4c16.3,14.9,42.5,26.8,74.7,33.9
	c7.1,32.3,19,58.5,33.9,74.7C142.9,383.8,100.9,341.7,87.6,288.4z M268,397c14.9-16.3,26.8-42.5,33.9-74.7
	c32.3-7.1,58.5-19,74.7-33.9C363.4,341.7,321.3,383.8,268,397z"/>
<path style="fill:#324A5E;" d="M435.6,141.9L344.9,162l19.6,19.6l-77.2,84.6L229.8,213l-1-0.9l-0.3-0.3c-4.3-3.6-10.6-3-14.2,1.2
	l-82.4,98l89.2-75l56.8,61.3c5.2,5.6,14,6,19.7,0.8l0.9-0.8l95-86.7l22,22L435.6,141.9z"/>
<g>
</g>
<g>
</g>
<g>
</g>
<g>
</g>
<g>
</g>
<g>
</g>
<g>
</g>
<g>
</g>
<g>
</g>
<g>
</g>
<g>
</g>
<g>
</g>
<g>
</g>
<g>
</g>
<g>
</g>
</svg>
