<?xml version="1.0" encoding="UTF-8"?>
<svg id="svg7912" width="1090" height="300" version="1.1" viewBox="0 0 1089.9999 300" xmlns="http://www.w3.org/2000/svg" xmlns:cc="http://creativecommons.org/ns#" xmlns:dc="http://purl.org/dc/elements/1.1/" xmlns:rdf="http://www.w3.org/1999/02/22-rdf-syntax-ns#">
 <metadata id="metadata7917">
  <rdf:RDF>
   <cc:Work rdf:about="">
    <dc:format>image/svg+xml</dc:format>
    <dc:type rdf:resource="http://purl.org/dc/dcmitype/StillImage"/>
    <dc:title/>
   </cc:Work>
  </rdf:RDF>
 </metadata>
 <g id="layer1" transform="translate(0,-752.4)">
  <g id="g6645" transform="translate(-391.3,-4635)">
   <g id="text6274" fill="#00222b" stroke-width="1px" aria-label="LINEKODE">
    <path id="path16" d="m494.4 5475h17.7v116h63.9v15h-81.6z"/>
    <path id="path18" d="m597.1 5475h17.8v131h-17.8z"/>
    <path id="path20" d="m652.7 5475h24l58.1 110v-110h17.3v131h-23.9l-58.2-110v110h-17.3z"/>
    <path id="path22" d="m789.9 5475h83v15h-65.2v39h62.5v15h-62.5v47h66.8v15h-84.6z"/>
    <path id="path24" d="m906.4 5475h17.8v55l58.8-55h23l-65.2 61 70.2 70h-23.8l-63-63v63h-17.8z"/>
    <path id="path26" d="m1070 5487q-19 0-30 14-12 15-12 40 0 24 12 39 11 14 30 14 20 0 31-14 11-15 11-39 0-25-11-40-11-14-31-14zm0-15q28 0 45 19 16 18 16 50 0 31-16 49-17 19-45 19-27 0-44-19-16-18-16-49 0-32 16-50 17-19 44-19z"/>
    <path id="path28" d="m1179 5489v102h22q27 0 39-12 13-12 13-39 0-26-13-38-12-13-39-13zm-18-14h37q38 0 56 16t18 49q0 34-18 50t-56 16h-37z"/>
    <path id="path30" d="m1303 5475h82v15h-65v39h63v15h-63v47h67v15h-84z"/>
   </g>
   <path id="path6278" d="m981 5519 90-1" fill="#5df" fill-rule="evenodd" stroke="#5df" stroke-width="12.8"/>
   <path id="path6280" d="m981.7 5538 89.3-1" fill="#00222b" fill-rule="evenodd" stroke="#00aad4" stroke-width="12.8"/>
   <path id="path6282" d="m981.3 5556 89.7-1" fill="#00222b" fill-rule="evenodd" stroke="#006680" stroke-width="12.8"/>
   <path id="rect6284" d="m399.4 5394h1073.6v285h-1073.6z" fill="none" opacity=".92" stroke="#e5e0e0" stroke-linecap="round" stroke-linejoin="round" stroke-width="12.8"/>
  </g>
 </g>
</svg>
